<?xml version="1.0" encoding="UTF-8"?>
<svg width="42px" height="64px" viewBox="0 0 42 64" version="1.1" xmlns="http://www.w3.org/2000/svg" xmlns:xlink="http://www.w3.org/1999/xlink">
    <title>7CDDC4E3-45DD-4F00-BBBA-F1A8F0290AAB</title>
    <defs>
        <polygon id="path-1" points="0 0.0671296296 10.5334565 0.0671296296 10.5334565 24.7185185 0 24.7185185"></polygon>
        <polygon id="path-3" points="0.049044683 0.419808691 6.62989318 0.419808691 6.62989318 7 0.049044683 7"></polygon>
    </defs>
    <g id="learn.robolink.com" stroke="none" stroke-width="1" fill="none" fill-rule="evenodd">
        <g id="Viewing-Lesson---not-logged-in" transform="translate(-40.000000, -5248.000000)">
            <g id="footer" transform="translate(0.000000, 5153.000000)">
                <g id="roi" transform="translate(40.000000, 95.597417)">
                    <path d="M20.1159945,3.31810286 C19.9677001,3.54628273 19.9612525,3.92091847 20.0986356,4.16042642 C20.2380026,4.39993437 20.4676358,4.41368989 20.6144424,4.18793747 C21.0355192,3.54628273 21.5870357,3.1902574 22.1648385,3.1902574 C23.1101535,3.1902574 23.9681782,4.16366302 24.2945252,5.61122963 C24.3634648,5.9195152 24.5722673,6.07649001 24.762719,5.96320922 C24.9506909,5.85154673 25.0474047,5.50927693 24.9769772,5.20099136 C24.5469729,3.28573692 23.4156698,2 22.1648385,2 C21.4005517,2 20.6749505,2.46687867 20.1159945,3.31810286" id="Fill-1" fill="#FEFEFE"></path>
                    <path d="M20.1158916,2.00469361 C19.9772321,2.11809212 19.9606824,2.31696905 20.0787666,2.44883777 C20.1968508,2.58242465 20.4048401,2.59788809 20.542605,2.48406004 C21.213538,1.93467862 22.0678593,1.63185306 22.9512545,1.63185306 C24.4451986,1.63185306 25.7870647,2.4857782 26.3685399,3.80876081 C26.4401061,3.96769054 26.631993,4.04286 26.7997262,3.97499271 C26.965223,3.90669588 27.045735,3.72156423 26.9732742,3.56005726 C26.2884753,2.00469361 24.7086517,1 22.9512545,1 C21.9126502,1 20.9044615,1.35694758 20.1158916,2.00469361" id="Fill-3" fill="#FEFEFE"></path>
                    <path d="M18.1339084,1.76122325 C17.9776449,1.90315939 17.954532,2.15996993 18.0836629,2.33338608 C18.2143012,2.50459311 18.4474402,2.53110258 18.6042062,2.38806187 C19.7266904,1.37296989 21.146628,0.812957234 22.6047521,0.812957234 C25.0240724,0.812957234 27.2589918,2.3643138 28.2970636,4.76728726 C28.3844908,4.97107885 28.604566,5.05723464 28.7904743,4.96003323 C28.9718606,4.86504095 29.050746,4.62258971 28.9658311,4.41990268 C27.8031505,1.73360921 25.3079594,0 22.6047521,0 C20.9778031,0 19.3890407,0.624629505 18.1339084,1.76122325" id="Fill-5" fill="#FEFEFE"></path>
                    <path d="M30,42.5423532 C32.5015951,43.551404 34.0524778,45.0362033 34.3658411,46.7256904 C34.656189,48.3014621 33.8683548,50.0526804 32.08422,51.7927593 L33.1548779,53 C35.9379688,50.2889301 36.1906954,47.9203992 35.9127404,46.4123927 C35.4931523,44.1427245 33.5930554,42.2220933 30.5665325,41 L30,42.5423532 Z" id="Fill-7" fill="#FEFEFE"></path>
                    <path d="M14,47.574037 C14.1604278,47.9825774 17.9908327,57.5884771 25.4005602,60 L26,58.4121776 C19.4051439,56.2668679 15.7402597,47.0922053 15.706137,47 L14,47.574037 Z" id="Fill-9" fill="#FEFEFE"></path>
                    <path d="M22.1398612,12.5016835 C22.0883135,12.8438076 21.8548672,13.0599991 21.6199396,12.9852132 L21.3435369,12.8992523 C21.1083131,12.8236068 20.9584097,12.4862106 21.0102538,12.1449461 L21.8607922,6.50032852 C21.9114512,6.15949385 22.1446013,5.94072355 22.3804176,6.01422005 L22.6568203,6.10361931 C22.8923404,6.17754562 23.0413549,6.51623127 22.9898072,6.85835536 L22.1398612,12.5016835 Z" id="Fill-11" fill="#FEFEFE"></path>
                    <path d="M38.2069726,21.1318293 C39.4856983,22.8854977 41.3635604,26.0993593 39.5595255,27.9130568 C37.1653459,30.3214007 29.0339378,29.612853 23.1405362,23.7336001 L22,25.0763006 C28.1806652,31.2418458 37.4521364,32.5245172 40.706214,29.2506266 C41.9054335,28.0433762 43.3464844,25.2374041 39.5278177,20 L38.2069726,21.1318293 Z" id="Fill-13" fill="#FEFEFE"></path>
                    <g id="Group-17" transform="translate(0.000000, 4.000000)">
                        <mask id="mask-2" fill="white">
                            <use xlink:href="#path-1"></use>
                        </mask>
                        <g id="Clip-16"></g>
                        <path d="M0.0777173913,10.6541667 C-0.5885,16.4990741 3.05823913,21.7569444 9.83423913,24.7185185 L10.5334565,23.2175926 C4.46432609,20.5634259 1.18823913,15.9347222 1.7678913,10.8342593 C2.27963043,6.32638889 5.70302174,2.56203704 10.0920217,1.67685185 L9.74432609,0.0671296296 C4.64463043,1.09166667 0.668847826,5.44722222 0.0777173913,10.6541667" id="Fill-15" fill="#FEFEFE" mask="url(#mask-2)"></path>
                    </g>
                    <path d="M28.8297352,20.7833313 C27.9291381,25.0889343 23.6899121,27.7814522 19.3660226,26.7971064 C15.039342,25.8093647 12.2673078,21.5197713 13.170696,17.2156238 C14.0717583,12.9095357 18.3081931,10.2189583 22.6334782,11.2028189 C26.9573677,12.1871647 29.732193,16.4791838 28.8297352,20.7833313" id="Fill-18" fill="#FEFEFE"></path>
                    <path d="M18.9770294,15.712526 C19.0940397,15.173521 18.7525542,14.6409878 18.2136905,14.5232635 C17.6748269,14.4055391 17.1418138,14.7460768 17.0229558,15.2856981 C16.9059455,15.826244 17.247739,16.358469 17.7866026,16.4771179 C18.3266979,16.5939177 18.8584794,16.2521473 18.9770294,15.712526" id="Fill-20" fill="#FBC700"></path>
                    <path d="M26.9767533,17.7134347 C27.0946685,17.1728556 26.752314,16.6405931 26.214768,16.5232367 C25.6744512,16.4055722 25.1415233,16.7462448 25.0229923,17.2855918 C24.9060006,17.8255548 25.2468158,18.3590494 25.7874405,18.4770219 C26.3252944,18.5940703 26.8597616,18.2524736 26.9767533,17.7134347" id="Fill-22" fill="#FBC700"></path>
                    <path d="M12.819256,5.6057086 C13.4308822,3.77383184 12.4399684,1.79058082 10.6055862,1.17962436 C8.77219701,0.570156829 6.79086574,1.56178234 6.18122535,3.39514803 C5.56860626,5.22702478 6.55952012,7.20829057 8.39439869,7.82123227 C10.2292773,8.42871456 12.2076298,7.43808167 12.819256,5.6057086" id="Fill-24" fill="#FEFEFE"></path>
                    <path d="M41.8362474,22.5558356 C42.4185431,20.7123774 41.3989051,18.7473126 39.5547204,18.1640969 C37.7135143,17.5813775 35.7477078,18.5993992 35.1639228,20.4448427 C34.5806343,22.2873082 35.6037472,24.2538621 37.4429677,24.8365815 C39.2881452,25.4183082 41.2534553,24.3978047 41.8362474,22.5558356" id="Fill-26" fill="#FEFEFE"></path>
                    <g id="Group-30" transform="translate(22.000000, 56.000000)">
                        <mask id="mask-4" fill="white">
                            <use xlink:href="#path-3"></use>
                        </mask>
                        <g id="Clip-29"></g>
                        <path d="M6.59003333,3.20208 C6.30816667,1.40681333 4.6277,0.178546667 2.83243333,0.459946667 C1.03763333,0.738546667 -0.192966667,2.42134667 0.0893666667,4.21708 C0.369366667,6.01281333 2.0517,7.24061333 3.84743333,6.96014667 C5.64083333,6.67874667 6.8705,4.99734667 6.59003333,3.20208" id="Fill-28" fill="#FEFEFE" mask="url(#mask-4)"></path>
                    </g>
                    <path d="M35.8336279,53.5602806 C36.4207737,51.7213157 35.4043117,49.7518117 33.5644559,49.1656261 C31.7226148,48.5794405 29.7522269,49.5989369 29.1650811,51.4388944 C28.5804169,53.2793483 29.5978716,55.246867 31.4412017,55.8335489 C33.2810575,56.4212235 35.2484674,55.4032162 35.8336279,53.5602806" id="Fill-31" fill="#FEFEFE"></path>
                    <path d="M33.1647832,34.4067283 C32.760703,34.4067283 32.4341112,34.0588803 32.4341112,33.6272548 C32.4341112,33.1966091 32.760703,32.8502309 33.1647832,32.8502309 C33.5679126,32.8502309 33.8930783,33.1966091 33.8930783,33.6272548 C33.8930783,34.0588803 33.5679126,34.4067283 33.1647832,34.4067283 M26.0667581,32.293674 C25.6626779,32.293674 25.3356107,31.9433763 25.3356107,31.5122407 C25.3356107,31.0825749 25.6626779,30.7332571 26.0667581,30.7332571 C26.4708383,30.7332571 26.7941025,31.0825749 26.7941025,31.5122407 C26.7941025,31.9433763 26.4708383,32.293674 26.0667581,32.293674 M16.7881262,32.5552949 C16.3868983,32.5552949 16.0584049,32.2035275 16.0584049,31.7748415 C16.0584049,31.3461556 16.3868983,30.9958579 16.7881262,30.9958579 C17.1907802,30.9958579 17.5187982,31.3461556 17.5187982,31.7748415 C17.5187982,32.2035275 17.1907802,32.5552949 16.7881262,32.5552949 M8.884793,36.2464035 C8.48308975,36.2464035 8.15697327,35.8970857 8.15697327,35.4674199 C8.15697327,35.0377541 8.48308975,34.6884362 8.884793,34.6884362 C9.28934858,34.6884362 9.61736662,35.0377541 9.61736662,35.4674199 C9.61736662,35.8970857 9.28934858,36.2464035 8.884793,36.2464035 M4.29872053,40.6591743 C3.89416495,40.6591743 3.56947463,40.3088766 3.56947463,39.8801906 C3.56947463,39.449055 3.89416495,39.101207 4.29872053,39.101207 C4.70089916,39.101207 5.02796642,39.449055 5.02796642,39.8801906 C5.02796642,40.3088766 4.70089916,40.6591743 4.29872053,40.6591743 M18.5,19 C8.8353526,19 1,26.3866265 1,35.500245 C1,44.6133735 8.8353526,52 18.5,52 C28.1660736,52 36,44.6133735 36,35.500245 C36,26.3866265 28.1660736,19 18.5,19" id="Fill-33" fill="#FEFEFE"></path>
                </g>
            </g>
        </g>
    </g>
</svg>